<svg width="24" height="24" viewBox="0 0 24 24" fill="none" xmlns="http://www.w3.org/2000/svg">
<path fill-rule="evenodd" clip-rule="evenodd" d="M13.0809 20.624C13.2888 20.2657 13.748 20.1437 14.1063 20.3516C14.4644 20.5594 14.5863 21.0178 14.3788 21.376C14.1371 21.7927 13.7903 22.1394 13.3729 22.3799C12.9555 22.6203 12.4817 22.7461 11.9999 22.7461C11.5183 22.7461 11.0451 22.6202 10.6278 22.3799C10.2103 22.1394 9.86271 21.7927 9.62097 21.376C9.41358 21.0178 9.53551 20.5594 9.89343 20.3516C10.2517 20.1437 10.711 20.2657 10.9188 20.624C11.0287 20.8133 11.1862 20.9708 11.3759 21.0801C11.5656 21.1894 11.7809 21.2461 11.9999 21.2461C12.2188 21.2461 12.4342 21.1893 12.6239 21.0801C12.8136 20.9708 12.9711 20.8133 13.0809 20.624ZM11.9999 1.25C12.3821 1.25 12.7609 1.28456 13.1327 1.35156C13.5403 1.42506 13.8117 1.81502 13.7382 2.22266C13.6646 2.63023 13.2747 2.9006 12.8671 2.82715C12.5824 2.77582 12.2922 2.75 11.9999 2.75C10.6237 2.75003 9.29339 3.33295 8.30457 4.3877C7.31423 5.4441 6.74988 6.8869 6.74988 8.40039C6.74983 12.2363 5.9787 14.7561 5.16785 16.3418C4.99016 16.6893 4.81069 16.9905 4.63855 17.25H19.3612C19.189 16.9905 19.0106 16.6884 18.8329 16.3408C18.2217 15.1456 17.6327 13.4201 17.3798 11C17.2804 10.0494 18.7826 9.99959 18.8729 10.8545C19.109 13.102 19.6494 14.6443 20.1678 15.6582C20.5131 16.3334 20.8523 16.7812 21.0927 17.0518C21.2129 17.1871 21.3093 17.279 21.37 17.333C21.4001 17.3598 21.4212 17.3777 21.4325 17.3867L21.4413 17.3936C21.7023 17.5835 21.813 17.9194 21.7147 18.2275C21.6155 18.5384 21.3262 18.75 20.9999 18.75H2.99988C2.67377 18.7499 2.38541 18.5391 2.28601 18.2285C2.1876 17.9203 2.29741 17.5836 2.55847 17.3936L2.56726 17.3867C2.57862 17.3777 2.60038 17.36 2.63074 17.333C2.69154 17.279 2.78784 17.1871 2.90808 17.0518C3.14838 16.7812 3.48669 16.3333 3.83191 15.6582C4.52099 14.3106 5.24983 12.0306 5.24988 8.40039C5.24988 6.51918 5.94983 4.70537 7.20984 3.36133C8.47139 2.01567 10.1935 1.25003 11.9999 1.25ZM18.9999 1.25C21.0709 1.25 22.7499 2.92893 22.7499 5C22.7499 7.07107 21.0709 8.75 18.9999 8.75C16.9289 8.74993 15.2499 7.07103 15.2499 5C15.2499 2.92897 16.9289 1.25007 18.9999 1.25ZM18.9999 2.75C17.7573 2.75007 16.7499 3.7574 16.7499 5C16.7499 6.2426 17.7573 7.24993 18.9999 7.25C20.2425 7.25 21.2499 6.24264 21.2499 5C21.2499 3.75736 20.2425 2.75 18.9999 2.75Z" fill="#292927"/>
</svg>
