<svg width="20" height="20" viewBox="0 0 20 20" fill="none" xmlns="http://www.w3.org/2000/svg">
<path fill-rule="evenodd" clip-rule="evenodd" d="M16.6664 8.54138C17.0115 8.54138 17.2913 8.82132 17.2914 9.16638V15.8334C17.2914 17.0989 16.2659 18.1252 15.0004 18.1254H5.00042C3.73479 18.1254 2.70846 17.099 2.70843 15.8334V9.16638C2.70857 8.82132 2.98834 8.54138 3.33343 8.54138C3.6785 8.5414 3.95829 8.82133 3.95843 9.16638V15.8334C3.95846 16.4086 4.42515 16.8754 5.00042 16.8754H15.0004C15.5755 16.8752 16.0414 16.4085 16.0414 15.8334V9.16638C16.0416 8.82141 16.3215 8.54153 16.6664 8.54138ZM9.49651 2.0531C9.81323 1.89474 10.1866 1.89474 10.5033 2.0531L18.6127 6.10778C18.9214 6.26213 19.0463 6.63696 18.892 6.94567C18.7377 7.25429 18.3628 7.38005 18.0541 7.22595L10.0004 3.1986L1.94671 7.22595C1.63797 7.38032 1.26221 7.25441 1.10784 6.94567C0.95368 6.63705 1.07862 6.26218 1.38714 6.10778L9.49651 2.0531Z" fill="currentColor"/>
</svg>
