<svg width="24" height="24" viewBox="0 0 24 24" fill="none" xmlns="http://www.w3.org/2000/svg">
<path d="M10.75 2.44995C11.44 1.85995 12.57 1.85995 13.27 2.44995L14.85 3.81005C15.15 4.07005 15.71 4.28002 16.11 4.28002H17.81C18.87 4.28002 19.74 5.14996 19.74 6.20996V7.91003C19.74 8.30003 19.95 8.87004 20.21 9.17004L21.57 10.75C22.16 11.44 22.16 12.57 21.57 13.27L20.21 14.85C19.95 15.15 19.74 15.71 19.74 16.11V17.8101C19.74 18.8701 18.87 19.74 17.81 19.74H16.11C15.72 19.74 15.15 19.95 14.85 20.21L13.27 21.5699C12.58 22.1599 11.45 22.1599 10.75 21.5699L9.17002 20.21C8.87002 19.95 8.31001 19.74 7.91001 19.74H6.18C5.12 19.74 4.25 18.8701 4.25 17.8101V16.1C4.25 15.71 4.04001 15.15 3.79001 14.85L2.44 13.26C1.86 12.57 1.86 11.45 2.44 10.76L3.79001 9.17004C4.04001 8.87004 4.25 8.31004 4.25 7.92004V6.20996C4.25 5.14996 5.12 4.28002 6.18 4.28002H7.91001C8.30001 4.28002 8.87002 4.07005 9.17002 3.81005L10.75 2.44995Z" stroke="currentColor" stroke-width="1.5" stroke-linecap="round" stroke-linejoin="round"/>
<path d="M12 8.5V15.5M8.5 12H15.5" stroke="currentColor" stroke-width="1.5" stroke-linecap="round" stroke-linejoin="round"/>
</svg>
