<svg width="20" height="20" viewBox="0 0 20 20" fill="none" xmlns="http://www.w3.org/2000/svg">
<path d="M17 1.875C17.6213 1.875 18.125 2.37868 18.125 3V17C18.125 17.6213 17.6213 18.125 17 18.125H3C2.37868 18.125 1.875 17.6213 1.875 17V3C1.875 2.37868 2.37868 1.875 3 1.875H17ZM3.125 16.875H16.875V3.125H3.125V16.875ZM6.66699 10.208C7.01191 10.2082 7.29182 10.4881 7.29199 10.833V13.333C7.29199 13.6781 7.01202 13.9578 6.66699 13.958C6.32181 13.958 6.04199 13.6782 6.04199 13.333V10.833C6.04217 10.488 6.32192 10.208 6.66699 10.208ZM10 8.54199C10.3452 8.54199 10.625 8.82181 10.625 9.16699V13.333C10.625 13.6782 10.3452 13.958 10 13.958C9.65482 13.958 9.375 13.6782 9.375 13.333V9.16699C9.375 8.82181 9.65482 8.54199 10 8.54199ZM13.333 6.04199C13.6782 6.04199 13.958 6.32181 13.958 6.66699V13.333C13.958 13.6782 13.6782 13.958 13.333 13.958C12.988 13.9578 12.708 13.6781 12.708 13.333V6.66699C12.708 6.32192 12.988 6.04217 13.333 6.04199Z" fill="#292927"/>
</svg>
