<svg width="383" height="426" viewBox="0 0 383 426" fill="none" xmlns="http://www.w3.org/2000/svg">
<path d="M323.143 112.132C328.435 110.848 331.472 116.113 332.251 119.073C331.751 127.073 329.051 147.873 322.251 167.073C315.451 186.273 298.084 205.406 290.251 212.573L144.5 367.001L144.369 367.104L144.751 366.687L138.571 371.63C112.589 392.407 81.0721 398.82 61.4111 387.328C56.6749 384.559 52.8285 381.273 49.999 377.743C60.7197 385.103 71.6159 380.715 75.751 377.573L204.251 241.073L206.32 236.105L205.464 239.317L213.607 231.368C226.969 218.325 232.978 214.011 257.251 200.045C285.577 183.746 300.841 167.85 313.373 141.6C316.947 134.113 323.216 115.53 323.248 112.323C323.249 112.235 323.213 112.172 323.143 112.132Z" fill="#F67659"/>
<path fill-rule="evenodd" clip-rule="evenodd" d="M226.595 104.058C220.103 107.302 216.669 110.695 213.108 117.384C211.377 120.634 210.917 123.183 210.918 129.501C210.92 136.583 211.274 138.132 214.006 143.001C217.444 149.126 224.508 155.118 230.357 156.87C232.43 157.492 237 157.996 240.511 157.99C256.832 157.965 269.476 144.061 268.155 127.593C266.485 106.8 245.214 94.7538 226.595 104.058ZM319.044 113.625C317.108 114.674 315.224 117.31 313.175 121.835C301.924 146.687 280.69 164.934 256.698 170.369C247.578 172.435 234.445 172.446 222.895 170.397C210.764 168.244 190.968 168.959 180.021 171.945C160.689 177.217 150.054 184.412 129.311 206.25C114.6 221.736 55.9392 282.916 29.3582 310.493C15.6982 324.666 11.7852 329.787 7.37121 339.27C1.36921 352.168 -0.20579 366.582 2.93221 379.897C7.33921 398.589 23.5632 416.321 41.8952 422.481C59.7712 428.488 82.5962 424.729 99.0272 413.074C104.901 408.907 121.262 392.499 139.926 372.058L144.895 366.615L138.715 371.558C112.733 392.335 81.2162 398.747 61.5552 387.255C47.1172 378.816 40.9492 365.568 46.6452 355.232C48.8052 351.312 104.457 294 104.457 294L134.556 261.5L155.412 239.5C176.977 216.753 181.662 212.981 188.302 213.022C199.741 213.092 209.458 224.819 206.685 235.207L205.608 239.244L213.751 231.295C227.113 218.252 233.122 213.939 257.395 199.973C285.721 183.674 300.985 167.778 313.517 141.528C317.091 134.041 323.36 115.456 323.392 112.25C323.399 111.651 321.689 112.192 319.044 113.625Z" fill="#358C9F"/>
<path d="M152.5 280.476L137.5 264.863L107.842 297L122.5 311.976L152.5 280.476Z" fill="#165469"/>
<path fill-rule="evenodd" clip-rule="evenodd" d="M275.751 422.267C286.757 419.384 294.455 414.877 302.971 406.332C311.125 398.151 316.616 388.572 319.046 378.289C321.112 369.546 320.676 356.024 318.047 347.289C313.372 331.756 310.343 327.892 273.062 289.894L252.967 269.435L238.112 284.718L223.257 300L250.225 327.177C273.369 350.503 275.756 353.226 276.965 357.68C279.303 366.298 275.47 375.454 267.909 379.312C263.205 381.711 255.146 381.913 250.653 379.744C248.893 378.893 236.565 367.081 223.257 353.494L198 328L168.5 357.68C168.5 357.68 179.474 369.448 194.725 384.921C221.588 412.175 222.718 413.181 230.953 417.161C235.628 419.421 242.135 421.949 245.413 422.779C253.538 424.837 266.794 424.614 275.751 422.267Z" fill="#F67659"/>
<path fill-rule="evenodd" clip-rule="evenodd" d="M44.5971 102.919C33.5911 105.802 25.8931 110.309 17.3771 118.854C9.22311 127.035 3.73211 136.614 1.30211 146.897C-0.763893 155.64 -0.327893 169.162 2.30111 177.897C6.97611 193.43 10.0051 197.294 47.2861 235.292L67.3811 255.752L82.2361 240.469L97.0911 225.187L70.1231 198.009C46.9791 174.683 44.5921 171.96 43.3831 167.506C41.0451 158.888 44.8781 149.732 52.4391 145.874C57.1431 143.475 65.2021 143.273 69.6951 145.442C71.4551 146.293 83.7831 158.105 97.0911 171.692L122.348 197.187C133.676 185.429 141 177.897 155 171.692C155 171.692 140.874 155.738 125.623 140.265C98.7601 113.011 97.6301 112.005 89.3951 108.025C84.7201 105.765 78.2131 103.237 74.9351 102.407C66.8101 100.349 53.5541 100.572 44.5971 102.919Z" fill="#358C9F"/>
<path d="M323 0L338.518 38.642L380.063 41.459L348.108 68.1581L358.267 108.541L323 86.4L287.733 108.541L297.892 68.1581L265.937 41.459L307.482 38.642L323 0Z" fill="#F57759"/>
</svg>
